<?xml version="1.0" standalone="no"?>
<!DOCTYPE svg PUBLIC "-//W3C//DTD SVG 20010904//EN"
 "http://www.w3.org/TR/2001/REC-SVG-20010904/DTD/svg10.dtd">
<svg version="1.0" xmlns="http://www.w3.org/2000/svg"
 width="160.000000pt" height="160.000000pt" viewBox="0 0 160.000000 160.000000"
 preserveAspectRatio="xMidYMid meet">

<g transform="translate(0.000000,160.000000) scale(0.100000,-0.100000)"
fill="#000000" stroke="none">
<path d="M227 1587 c-53 -17 -106 -63 -128 -111 -20 -44 -25 -111 -9 -121 6
-3 10 -21 10 -38 0 -57 21 -108 61 -152 21 -23 39 -47 39 -54 0 -7 -19 -11
-47 -11 -63 0 -114 -26 -135 -70 -22 -44 -26 -201 -5 -219 26 -21 37 9 37 104
0 83 2 94 23 113 18 17 36 22 80 22 32 0 66 -5 76 -12 15 -9 25 -9 45 0 20 9
32 9 51 0 19 -8 31 -8 48 0 12 6 77 13 144 14 112 3 123 5 146 27 14 12 29 39
34 60 6 26 14 36 28 36 29 0 32 -60 6 -102 -34 -55 -64 -67 -175 -73 l-101 -5
-3 -83 c-3 -89 8 -123 34 -101 9 8 14 33 14 75 0 62 1 64 25 64 24 0 25 -2 25
-63 0 -36 5 -68 12 -75 17 -17 1009 -17 1026 0 17 17 17 759 0 776 -17 17
-1009 17 -1026 0 -9 -9 -12 -78 -12 -250 l0 -238 -75 0 c-49 0 -75 4 -75 11 0
7 18 31 39 54 49 54 65 107 59 206 -4 60 -10 86 -32 122 -47 81 -152 122 -239
94z m141 -57 l32 -20 -20 -40 c-18 -35 -27 -41 -86 -60 -70 -21 -159 -27 -169
-10 -10 17 31 96 61 117 39 27 52 31 104 32 28 1 57 -6 78 -19z m1182 -330 l0
-350 -475 0 -475 0 0 49 0 49 45 11 c109 28 189 165 135 234 -29 37 -80 38
-109 1 -12 -15 -21 -36 -21 -48 0 -25 -17 -46 -37 -46 -10 0 -13 47 -13 225
l0 225 475 0 475 0 0 -350z m-1106 244 c4 -9 4 -19 2 -21 -8 -8 -26 8 -26 23
0 19 16 18 24 -2z m-14 -74 c27 -27 27 -103 0 -148 -80 -131 -280 -74 -280 81
l0 47 58 0 c31 1 80 9 107 20 66 24 91 24 115 0z m-146 -269 c3 -5 -1 -12 -10
-15 -22 -9 -24 -8 -24 9 0 16 25 21 34 6z m66 -7 c0 -11 -5 -14 -16 -10 -9 3
-18 6 -20 6 -3 0 -2 5 1 10 10 16 35 12 35 -6z"/>
<path d="M1017 1490 c-46 -14 -98 -60 -118 -104 -37 -82 -14 -188 52 -239 140
-106 331 -3 317 170 -10 121 -138 210 -251 173z m33 -76 c0 -24 -8 -46 -25
-66 -30 -36 -31 -57 -4 -92 16 -20 29 -26 58 -26 27 0 44 -7 61 -25 34 -36 15
-50 -65 -50 -59 0 -66 3 -99 34 -42 41 -60 89 -51 137 9 51 75 120 118 123 4
1 7 -15 7 -35z m124 -3 c31 -28 56 -78 56 -111 0 -11 -7 -37 -15 -57 l-15 -36
-30 28 c-22 21 -28 34 -24 55 4 19 -1 35 -20 57 -18 21 -26 43 -26 68 0 33 2
36 23 30 12 -4 35 -19 51 -34z m-79 -111 c0 -16 -6 -26 -18 -28 -19 -4 -32 20
-23 44 9 25 41 13 41 -16z"/>
<path d="M862 1038 c-8 -8 -9 -15 -1 -25 9 -10 58 -13 213 -13 206 0 240 6
215 37 -15 18 -409 19 -427 1z"/>
<path d="M955 959 c-15 -23 15 -30 126 -27 93 2 114 6 114 18 0 12 -21 16
-117 18 -78 2 -119 -1 -123 -9z"/>
<path d="M107 964 c-13 -14 -8 -141 7 -153 24 -20 37 11 34 85 -2 53 -7 69
-18 72 -9 1 -19 0 -23 -4z"/>
<path d="M765 743 c-89 -20 -150 -65 -188 -137 -20 -37 -22 -56 -22 -206 l0
-165 73 -3 c52 -2 72 -7 72 -16 0 -8 -17 -15 -46 -19 -32 -3 -55 -13 -73 -31
-23 -23 -26 -34 -26 -94 l0 -67 245 0 245 0 0 67 c0 60 -3 71 -26 94 -18 18
-41 28 -73 31 -29 4 -46 11 -46 19 0 9 20 14 73 16 l72 3 3 139 c3 167 -10
226 -66 288 -53 59 -153 96 -217 81z m113 -58 c49 -21 81 -52 103 -100 15 -33
19 -65 19 -177 l0 -138 -200 0 -200 0 0 135 c0 144 10 186 53 234 52 56 151
76 225 46z m-28 -475 c0 -13 -9 -22 -25 -26 -38 -10 -75 3 -75 26 0 17 7 20
50 20 43 0 50 -3 50 -20z m-50 -71 c14 0 58 3 98 7 86 8 102 -1 102 -57 l0
-39 -200 0 -200 0 0 38 c0 57 13 65 100 58 41 -4 86 -7 100 -7z"/>
<path d="M164 701 c-75 -34 -114 -110 -114 -224 0 -90 18 -145 62 -189 23 -23
38 -48 38 -62 0 -20 -6 -24 -46 -29 -32 -3 -55 -13 -73 -31 -23 -23 -26 -34
-26 -94 l0 -67 245 0 245 0 0 67 c0 60 -3 71 -26 94 -18 18 -41 28 -73 31 -39
5 -46 9 -46 28 0 12 17 40 39 62 43 46 61 101 61 190 0 151 -76 243 -200 243
-25 0 -64 -9 -86 -19z m139 -35 c18 -7 45 -28 62 -45 27 -29 30 -40 34 -112 3
-73 1 -83 -20 -106 -31 -33 -79 -53 -129 -53 -50 0 -98 20 -129 53 -21 23 -23
33 -20 106 4 72 7 83 34 112 53 56 108 71 168 45z m2 -354 c66 18 72 8 12 -21
-54 -26 -80 -26 -134 0 -60 29 -54 39 12 21 49 -14 61 -14 110 0z m-5 -97 c0
-11 -12 -15 -50 -15 -38 0 -50 4 -50 15 0 11 12 15 50 15 38 0 50 -4 50 -15z
m138 -77 c7 -7 12 -29 12 -50 l0 -38 -200 0 -200 0 0 38 c0 21 5 43 12 50 17
17 359 17 376 0z"/>
<path d="M1245 701 c-71 -44 -95 -96 -95 -208 0 -105 16 -158 61 -206 22 -22
39 -50 39 -62 0 -19 -7 -23 -46 -28 -32 -3 -55 -13 -73 -31 -23 -23 -26 -34
-26 -94 l0 -67 245 0 245 0 0 67 c0 60 -3 71 -26 94 -18 18 -41 28 -73 31 -39
5 -46 9 -46 28 0 12 18 40 39 63 48 50 65 115 59 227 -3 75 -5 79 -41 110 -28
24 -37 40 -37 64 l0 31 -97 0 c-78 0 -104 -4 -128 -19z m185 -61 c4 -25 11
-36 25 -38 39 -8 45 -22 45 -101 0 -71 -2 -79 -27 -103 -68 -65 -178 -65 -245
0 -26 24 -28 31 -28 106 0 132 44 178 165 173 l60 -2 5 -35z m-25 -328 c66 18
72 8 12 -21 -54 -26 -80 -26 -134 0 -60 29 -54 39 12 21 49 -14 61 -14 110 0z
m-5 -97 c0 -11 -12 -15 -50 -15 -38 0 -50 4 -50 15 0 11 12 15 50 15 38 0 50
-4 50 -15z m138 -77 c7 -7 12 -29 12 -50 l0 -38 -200 0 -200 0 0 38 c0 21 5
43 12 50 17 17 359 17 376 0z"/>
</g>
</svg>
