<?xml version="1.0" standalone="no"?>
<!DOCTYPE svg PUBLIC "-//W3C//DTD SVG 20010904//EN"
 "http://www.w3.org/TR/2001/REC-SVG-20010904/DTD/svg10.dtd">
<svg version="1.0" xmlns="http://www.w3.org/2000/svg"
 width="160.000000pt" height="167.000000pt" viewBox="0 0 160.000000 167.000000"
 preserveAspectRatio="xMidYMid meet">

<g transform="translate(0.000000,167.000000) scale(0.100000,-0.100000)"
fill="#000000" stroke="none">
<path d="M1180 1645 c0 -20 5 -25 25 -25 20 0 25 5 25 25 0 20 -5 25 -25 25
-20 0 -25 -5 -25 -25z"/>
<path d="M1290 1648 c0 -24 3 -26 74 -30 123 -8 173 -54 183 -168 5 -56 8 -60
31 -60 24 0 25 1 20 69 -10 139 -78 201 -225 209 -83 5 -83 4 -83 -20z"/>
<path d="M720 1530 c-29 -29 -31 -48 -28 -278 4 -268 -4 -255 164 -260 l115
-4 -7 -46 c-4 -26 -8 -50 -11 -54 -2 -5 -87 -8 -189 -8 l-184 0 0 53 c0 80
-16 125 -53 147 -29 18 -52 20 -237 20 -296 0 -280 20 -280 -360 0 -299 4
-326 59 -354 17 -9 55 -16 86 -16 l55 0 0 -38 c0 -36 -6 -44 -100 -127 -55
-48 -103 -97 -106 -109 -13 -55 43 -108 93 -89 13 4 79 59 147 121 69 61 128
112 131 112 3 0 5 -40 5 -89 0 -80 3 -93 24 -117 30 -36 86 -39 119 -6 19 19
23 36 27 119 l5 97 125 -113 c69 -62 135 -118 147 -123 31 -15 79 7 91 41 15
42 -4 72 -105 162 -86 76 -93 85 -93 120 l0 37 96 4 c94 3 96 4 125 36 32 35
38 81 17 127 -21 47 -52 55 -223 55 l-155 0 0 60 0 60 340 0 340 0 0 -324 0
-325 24 -27 c30 -36 86 -39 119 -6 22 22 22 26 25 352 2 286 5 330 18 330 28
0 64 47 64 82 -1 69 -40 88 -184 88 l-103 0 -7 38 c-12 76 -17 72 94 72 105 0
151 13 164 45 3 9 6 120 6 246 0 216 -1 230 -20 249 -19 19 -33 20 -370 20
-335 0 -351 -1 -370 -20z m708 -202 l2 -168 -340 0 -340 0 0 163 c0 90 3 167
7 170 4 4 155 6 337 5 l331 -3 3 -167z m0 -245 l-3 -28 -335 0 -335 0 -3 28
-3 27 341 0 341 0 -3 -27z m-925 -51 c13 -15 16 -60 19 -315 l3 -297 -206 0
c-189 0 -209 2 -230 19 l-24 19 0 275 c0 256 1 276 19 296 18 20 29 21 211 21
170 0 194 -2 208 -18z m650 -59 c3 -10 8 -35 12 -55 l6 -38 -82 0 -82 0 7 38
c3 20 6 45 6 55 0 14 10 17 64 17 53 0 66 -3 69 -17z m303 -168 c4 -8 1 -22
-6 -30 -11 -13 -74 -15 -441 -15 l-429 0 0 30 0 30 435 0 c380 0 436 -2 441
-15z m-78 -390 c3 -333 1 -355 -32 -355 -13 0 -27 7 -30 16 -3 9 -6 155 -6
325 l0 310 33 -3 32 -3 3 -290z m-476 108 c24 -21 23 -58 -2 -83 -18 -18 -33
-20 -148 -20 -155 0 -172 8 -172 76 l0 44 152 0 c127 0 154 -3 170 -17z m-237
-183 l0 -25 -202 -3 -203 -2 0 30 0 30 203 -2 202 -3 0 -25z m-366 -87 c-2
-15 -208 -193 -223 -193 -34 0 -12 32 79 114 66 60 103 86 120 86 14 0 25 -3
24 -7z m191 -93 c0 -99 0 -100 -24 -100 -13 0 -27 7 -30 16 -8 21 -8 169 1
177 3 4 17 7 30 7 23 0 23 -2 23 -100z m284 14 c92 -82 114 -114 80 -114 -14
0 -215 172 -222 191 -2 5 7 9 21 9 17 0 55 -27 121 -86z"/>
<path d="M950 1305 c0 -20 5 -25 25 -25 20 0 25 5 25 25 0 20 -5 25 -25 25
-20 0 -25 -5 -25 -25z"/>
<path d="M1060 1305 c0 -20 5 -25 25 -25 20 0 25 5 25 25 0 20 -5 25 -25 25
-20 0 -25 -5 -25 -25z"/>
<path d="M1180 1305 c0 -20 5 -25 25 -25 20 0 25 5 25 25 0 20 -5 25 -25 25
-20 0 -25 -5 -25 -25z"/>
<path d="M1490 395 l0 -195 25 0 25 0 0 195 0 195 -25 0 -25 0 0 -195z"/>
</g>
</svg>
