<?xml version="1.0" standalone="no"?>
<!DOCTYPE svg PUBLIC "-//W3C//DTD SVG 20010904//EN"
 "http://www.w3.org/TR/2001/REC-SVG-20010904/DTD/svg10.dtd">
<svg version="1.0" xmlns="http://www.w3.org/2000/svg"
 width="63.000000pt" height="63.000000pt" viewBox="0 0 63.000000 63.000000"
 preserveAspectRatio="xMidYMid meet">

<g transform="translate(0.000000,63.000000) scale(0.100000,-0.100000)"
fill="#000000" stroke="none">
<path d="M190 585 c0 -28 4 -44 10 -40 6 3 10 21 10 40 0 19 -4 37 -10 40 -6
4 -10 -12 -10 -40z"/>
<path d="M90 571 c0 -13 29 -35 37 -28 7 8 -15 37 -28 37 -5 0 -9 -4 -9 -9z"/>
<path d="M270 565 c-7 -9 -10 -18 -7 -22 8 -7 37 15 37 28 0 14 -16 11 -30 -6z"/>
<path d="M12 548 c-17 -17 -17 -389 0 -406 8 -8 47 -12 110 -12 l98 0 0 -26
c0 -16 -10 -34 -25 -46 -14 -11 -25 -28 -25 -39 0 -19 8 -19 228 -17 l227 3 3
62 c4 81 -16 127 -63 150 -26 12 -34 21 -28 32 4 9 9 44 11 79 l4 62 -64 0
c-83 0 -102 -14 -103 -71 0 -24 4 -54 8 -67 8 -22 7 -23 -30 -20 -29 2 -39 8
-41 23 -8 52 -14 66 -39 79 -25 13 -27 18 -28 82 l0 69 -37 3 c-20 2 -46 -2
-57 -8 -25 -13 -36 -66 -22 -102 9 -23 7 -28 -9 -33 -29 -9 -60 -54 -60 -86 0
-24 -4 -29 -25 -29 l-25 0 0 151 c0 142 1 151 20 156 11 3 20 9 20 14 0 13
-34 11 -48 -3z m226 -100 c3 -15 -4 -18 -37 -18 -29 0 -41 4 -41 14 0 30 73
33 78 4z m2 -57 c0 -44 -72 -54 -83 -12 -4 17 1 21 32 24 20 2 39 4 44 5 4 1
7 -6 7 -17z m290 -68 c0 -50 -28 -93 -60 -93 -47 0 -80 62 -61 113 10 25 15
27 66 27 l55 0 0 -47z m-335 -33 c5 0 19 9 31 21 19 18 25 19 43 7 22 -13 45
-64 35 -79 -3 -5 -52 -9 -110 -9 l-104 0 0 29 c0 20 9 36 27 50 l26 21 22 -20
c12 -11 25 -20 30 -20z m15 36 c0 -3 -4 -8 -10 -11 -5 -3 -10 -1 -10 4 0 6 5
11 10 11 6 0 10 -2 10 -4z m113 -146 l-18 -31 -140 3 -140 3 -3 28 -3 27 161
0 161 0 -18 -30z m243 12 c29 -23 44 -54 44 -91 0 -31 0 -31 -55 -31 -30 0
-55 -4 -55 -10 0 -5 25 -10 55 -10 43 0 55 -3 55 -15 0 -13 -20 -15 -142 -13
-143 3 -143 3 -146 27 -7 49 9 113 35 137 23 21 35 24 107 24 62 0 86 -5 102
-18z m-258 -89 c-3 -24 -8 -28 -33 -28 -25 0 -30 4 -33 28 -3 25 -1 27 33 27
34 0 36 -2 33 -27z m0 -65 c-3 -8 -27 -14 -63 -16 -52 -3 -57 -1 -45 12 16 20
114 23 108 4z"/>
<path d="M275 180 c3 -5 8 -10 11 -10 2 0 4 5 4 10 0 6 -5 10 -11 10 -5 0 -7
-4 -4 -10z"/>
<path d="M460 59 c0 -5 5 -7 10 -4 6 3 10 8 10 11 0 2 -4 4 -10 4 -5 0 -10 -5
-10 -11z"/>
<path d="M350 550 c0 -5 5 -10 10 -10 6 0 10 5 10 10 0 6 -4 10 -10 10 -5 0
-10 -4 -10 -10z"/>
<path d="M400 550 c0 -6 28 -10 70 -10 l70 0 0 -55 c0 -32 4 -55 10 -55 7 0
10 24 8 63 l-3 62 -77 3 c-49 2 -78 -1 -78 -8z"/>
</g>
</svg>
