<?xml version="1.0" standalone="no"?>
<!DOCTYPE svg PUBLIC "-//W3C//DTD SVG 20010904//EN"
 "http://www.w3.org/TR/2001/REC-SVG-20010904/DTD/svg10.dtd">
<svg version="1.0" xmlns="http://www.w3.org/2000/svg"
 width="60.000000pt" height="60.000000pt" viewBox="0 0 60.000000 60.000000"
 preserveAspectRatio="xMidYMid meet">

<g transform="translate(0.000000,60.000000) scale(0.100000,-0.100000)"
fill="#000000" stroke="none">
<path d="M477 589 c-59 -14 -97 -37 -162 -99 -54 -52 -66 -58 -115 -65 -49 -6
-61 -13 -112 -63 -57 -55 -63 -72 -28 -72 10 0 31 -5 46 -10 26 -10 26 -11 8
-31 -18 -20 -17 -21 50 -87 63 -63 68 -66 81 -48 19 25 32 14 40 -34 4 -22 10
-42 14 -44 4 -3 33 21 63 52 50 51 56 63 62 112 7 49 13 61 67 117 73 76 100
133 102 216 l2 62 -40 2 c-22 1 -57 -3 -78 -8z m102 -46 c0 -21 -3 -46 -7 -55
-6 -16 -10 -16 -39 -2 -17 9 -38 30 -47 47 -14 29 -14 33 2 39 9 4 34 7 55 7
36 1 37 0 36 -36z m-119 1 c0 -21 63 -84 85 -84 12 0 15 -5 9 -22 -11 -37 -36
-66 -156 -186 l-113 -112 -75 76 -75 76 110 105 c155 149 215 190 215 147z
m-240 -141 c0 -4 -21 -29 -47 -55 -44 -45 -84 -61 -97 -40 -7 12 74 89 99 95
32 8 45 8 45 0z m-22 -206 c38 -39 53 -67 35 -67 -10 0 -103 92 -103 102 0 20
29 4 68 -35z m206 -4 c-7 -39 -79 -127 -96 -117 -21 13 -4 52 44 101 29 29 54
53 56 53 1 0 0 -17 -4 -37z"/>
<path d="M342 434 c-28 -19 -30 -74 -4 -97 25 -23 68 -21 92 3 58 58 -20 142
-88 94z m76 -16 c7 -7 12 -21 12 -33 0 -12 -5 -26 -12 -33 -7 -7 -21 -12 -33
-12 -40 0 -61 50 -33 78 7 7 21 12 33 12 12 0 26 -5 33 -12z"/>
<path d="M95 170 c-3 -5 1 -10 9 -10 9 0 16 5 16 10 0 6 -4 10 -9 10 -6 0 -13
-4 -16 -10z"/>
<path d="M70 140 c0 -5 5 -10 10 -10 6 0 10 5 10 10 0 6 -4 10 -10 10 -5 0
-10 -4 -10 -10z"/>
<path d="M82 97 c-29 -29 -49 -56 -45 -60 7 -8 113 91 113 105 0 18 -18 5 -68
-45z"/>
<path d="M25 100 c-20 -21 -24 -30 -13 -30 19 0 51 35 46 50 -2 6 -16 -3 -33
-20z"/>
<path d="M140 95 c-13 -14 -20 -28 -17 -32 8 -7 57 35 57 49 0 15 -16 8 -40
-17z"/>
<path d="M70 9 c0 -5 5 -7 10 -4 6 3 10 8 10 11 0 2 -4 4 -10 4 -5 0 -10 -5
-10 -11z"/>
</g>
</svg>
