<?xml version="1.0" standalone="no"?>
<!DOCTYPE svg PUBLIC "-//W3C//DTD SVG 20010904//EN"
 "http://www.w3.org/TR/2001/REC-SVG-20010904/DTD/svg10.dtd">
<svg version="1.0" xmlns="http://www.w3.org/2000/svg"
 width="55.000000pt" height="49.000000pt" viewBox="0 0 55.000000 49.000000"
 preserveAspectRatio="xMidYMid meet">

<g transform="translate(0.000000,49.000000) scale(0.100000,-0.100000)"
fill="#000000" stroke="none">
<path d="M383 459 c-66 -32 -184 -58 -266 -59 -33 0 -49 -5 -53 -15 -4 -8 -14
-15 -24 -15 -30 0 -41 -25 -38 -82 3 -46 6 -53 25 -56 28 -4 48 -37 87 -141
l32 -86 47 -3 c61 -4 65 8 33 98 -14 39 -26 74 -26 77 0 15 109 -10 179 -40
42 -18 83 -31 89 -29 7 2 12 25 12 58 0 49 3 55 25 64 29 11 49 54 40 88 -3
13 -19 31 -35 40 -26 15 -29 23 -32 72 -4 67 -11 69 -95 29z m77 -165 c0 -129
-3 -165 -12 -161 -102 43 -143 57 -195 67 l-63 13 0 83 c0 79 1 84 23 88 87
18 129 30 177 51 30 13 58 24 63 25 4 0 7 -75 7 -166z m-290 1 l0 -85 -45 0
-45 0 0 85 0 85 45 0 45 0 0 -85z m353 16 c5 -20 -17 -61 -34 -61 -5 0 -9 23
-9 50 0 46 2 50 19 41 10 -6 21 -19 24 -30z m-473 -17 c0 -59 -24 -55 -28 4
-2 33 0 42 12 42 12 0 16 -11 16 -46z m140 -161 c12 -32 24 -70 27 -85 5 -25
2 -28 -20 -28 -31 0 -39 11 -66 89 -27 82 -27 81 8 81 27 0 32 -5 51 -57z"/>
</g>
</svg>
