<?xml version="1.0" standalone="no"?>
<!DOCTYPE svg PUBLIC "-//W3C//DTD SVG 20010904//EN"
 "http://www.w3.org/TR/2001/REC-SVG-20010904/DTD/svg10.dtd">
<svg version="1.0" xmlns="http://www.w3.org/2000/svg"
 width="59.000000pt" height="59.000000pt" viewBox="0 0 59.000000 59.000000"
 preserveAspectRatio="xMidYMid meet">

<g transform="translate(0.000000,59.000000) scale(0.100000,-0.100000)"
fill="#000000" stroke="none">
<path d="M159 575 c-98 -32 -170 -147 -155 -250 10 -62 56 -128 113 -162 40
-23 59 -28 113 -28 41 0 76 7 95 17 l30 16 86 -84 c48 -46 93 -84 102 -84 20
0 47 27 47 47 0 9 -38 54 -84 102 l-84 86 16 30 c10 19 17 54 17 96 0 56 -4
73 -30 115 -57 91 -165 131 -266 99z m135 -17 c78 -24 146 -115 146 -198 0
-123 -115 -223 -239 -206 -204 28 -244 305 -57 392 58 27 90 29 150 12z m136
-364 c11 -12 10 -18 -3 -32 -16 -15 -18 -15 -34 0 -13 14 -14 20 -3 32 7 9 16
16 20 16 4 0 13 -7 20 -16z m89 -88 c36 -36 52 -60 48 -70 -11 -27 -31 -18
-86 38 -46 47 -52 57 -41 70 7 9 15 16 19 16 4 0 31 -24 60 -54z"/>
<path d="M150 522 c-19 -10 -48 -36 -65 -56 -27 -34 -30 -45 -30 -106 0 -61 3
-72 31 -107 111 -139 324 -68 324 109 0 55 -25 104 -73 142 -49 39 -134 47
-187 18z m160 -23 c55 -31 83 -87 78 -153 -17 -203 -318 -187 -318 16 0 119
135 196 240 137z"/>
<path d="M225 491 c-2 -5 14 -13 35 -20 23 -7 49 -24 62 -41 12 -17 26 -30 30
-30 15 0 -21 59 -43 71 -34 18 -78 28 -84 20z"/>
</g>
</svg>
