<?xml version="1.0" standalone="no"?>
<!DOCTYPE svg PUBLIC "-//W3C//DTD SVG 20010904//EN"
 "http://www.w3.org/TR/2001/REC-SVG-20010904/DTD/svg10.dtd">
<svg version="1.0" xmlns="http://www.w3.org/2000/svg"
 width="46.000000pt" height="59.000000pt" viewBox="0 0 46.000000 59.000000"
 preserveAspectRatio="xMidYMid meet">

<g transform="translate(0.000000,59.000000) scale(0.100000,-0.100000)"
fill="#000000" stroke="none">
<path d="M51 572 c-6 -12 -11 -28 -11 -36 0 -9 -6 -16 -14 -16 -32 0 -36 -80
-5 -109 18 -16 23 -43 39 -206 13 -128 23 -191 32 -196 17 -11 259 -11 276 0
9 5 20 70 33 196 16 161 22 191 39 207 29 28 25 108 -5 108 -8 0 -16 9 -20 19
-8 25 -19 28 -145 35 -58 4 -128 9 -157 12 -45 5 -53 3 -62 -14z m238 -20 c61
-5 96 -11 99 -19 3 -10 -33 -13 -157 -13 -88 0 -162 4 -165 9 -4 5 -4 16 0 24
4 11 19 14 67 10 34 -2 104 -7 156 -11z m149 -89 l3 -33 -210 0 -211 0 0 28
c0 16 3 32 7 36 4 3 97 5 207 4 l201 -3 3 -32z m-42 -94 c-3 -17 -6 -40 -6
-50 0 -28 -64 -37 -91 -13 -29 26 -109 26 -138 0 -27 -24 -91 -15 -91 13 0 10
-3 33 -6 50 l-6 31 172 0 173 0 -7 -31z m-112 -80 c17 -13 38 -20 59 -18 37 3
37 3 37 -52 0 -40 -1 -40 -32 -38 -19 2 -45 -5 -61 -16 -36 -23 -78 -23 -114
0 -16 11 -42 18 -60 16 -32 -2 -33 -2 -33 38 0 23 -1 44 -2 48 -2 5 14 6 34 5
27 -3 46 3 64 17 34 27 74 27 108 0z m-109 -149 c22 -11 46 -20 55 -20 9 0 33
9 55 20 22 11 50 20 62 20 21 0 23 -5 23 -47 0 -97 5 -93 -140 -93 l-127 0 -7
31 c-3 17 -6 49 -6 70 0 34 3 39 23 39 12 0 40 -9 62 -20z"/>
<path d="M203 280 c-21 -9 -43 -38 -43 -59 0 -22 41 -51 70 -51 31 0 70 30 70
54 0 19 -31 53 -55 59 -11 3 -30 2 -42 -3z m66 -38 c14 -26 -5 -52 -39 -52
-34 0 -53 26 -39 52 6 11 21 18 39 18 18 0 33 -7 39 -18z"/>
</g>
</svg>
