<?xml version="1.0" standalone="no"?>
<!DOCTYPE svg PUBLIC "-//W3C//DTD SVG 20010904//EN"
 "http://www.w3.org/TR/2001/REC-SVG-20010904/DTD/svg10.dtd">
<svg version="1.0" xmlns="http://www.w3.org/2000/svg"
 width="56.000000pt" height="56.000000pt" viewBox="0 0 56.000000 56.000000"
 preserveAspectRatio="xMidYMid meet">

<g transform="translate(0.000000,56.000000) scale(0.100000,-0.100000)"
fill="#000000" stroke="none">
<path d="M270 525 c0 -19 5 -35 10 -35 6 0 10 16 10 35 0 19 -4 35 -10 35 -5
0 -10 -16 -10 -35z"/>
<path d="M183 493 c9 -9 19 -14 23 -11 10 10 -6 28 -24 28 -15 0 -15 -1 1 -17z"/>
<path d="M355 499 c-4 -6 -5 -13 -2 -16 7 -7 27 6 27 18 0 12 -17 12 -25 -2z"/>
<path d="M180 440 c-11 -11 -20 -27 -20 -35 0 -21 -9 -19 -30 7 -15 20 -21 21
-44 10 -14 -6 -26 -18 -26 -27 0 -8 -6 -15 -14 -15 -8 0 -22 -10 -30 -22 -13
-18 -16 -52 -16 -166 0 -138 1 -144 25 -167 l24 -25 231 0 231 0 24 25 c25 24
35 85 15 85 -5 0 -10 -13 -10 -28 0 -59 -13 -62 -262 -62 -271 0 -258 -6 -258
123 l0 87 69 0 c66 0 68 -1 64 -23 -12 -63 57 -137 127 -137 70 0 139 74 127
137 -4 22 -2 23 64 23 62 0 69 -2 69 -20 0 -11 5 -20 10 -20 6 0 10 32 10 75
0 67 -3 79 -25 100 -19 20 -34 25 -75 25 -38 0 -50 4 -50 15 0 8 -9 24 -20 35
-17 17 -33 20 -105 20 -72 0 -88 -3 -105 -20z m198 -12 c31 -31 14 -38 -93
-38 -79 0 -105 3 -105 13 0 28 25 37 105 37 50 0 86 -5 93 -12z m-258 -28 c0
-5 -9 -10 -21 -10 -11 0 -17 5 -14 10 3 6 13 10 21 10 8 0 14 -4 14 -10z m402
-47 c12 -11 18 -30 18 -60 l0 -43 -74 0 c-55 0 -75 4 -79 14 -7 18 -55 51 -63
43 -3 -3 8 -18 26 -34 22 -20 33 -40 37 -70 5 -39 2 -46 -30 -78 -29 -29 -42
-35 -77 -35 -35 0 -48 6 -77 35 -32 32 -35 39 -30 78 4 30 15 50 37 70 18 16
29 31 26 34 -8 8 -56 -25 -63 -43 -4 -10 -24 -14 -79 -14 l-74 0 0 42 c0 77 2
78 258 78 196 0 228 -2 244 -17z"/>
<path d="M75 330 c-12 -20 6 -51 28 -48 31 4 31 52 0 56 -11 2 -24 -2 -28 -8z
m35 -20 c0 -5 -4 -10 -10 -10 -5 0 -10 5 -10 10 0 6 5 10 10 10 6 0 10 -4 10
-10z"/>
<path d="M440 310 c0 -5 9 -10 20 -10 11 0 20 5 20 10 0 6 -9 10 -20 10 -11 0
-20 -4 -20 -10z"/>
<path d="M254 270 c-29 -11 -54 -48 -54 -80 0 -35 42 -73 80 -73 34 0 80 37
80 65 0 26 -18 22 -22 -4 -2 -12 -15 -29 -30 -38 -25 -13 -31 -13 -55 0 -23
13 -28 23 -28 55 0 35 4 42 33 57 35 17 32 31 -4 18z"/>
<path d="M254 216 c-11 -29 0 -51 26 -51 21 0 25 5 25 30 0 24 -5 31 -23 33
-13 2 -24 -3 -28 -12z m41 -15 c7 -12 -12 -24 -25 -16 -11 7 -4 25 10 25 5 0
11 -4 15 -9z"/>
<path d="M540 149 c0 -5 5 -7 10 -4 6 3 10 8 10 11 0 2 -4 4 -10 4 -5 0 -10
-5 -10 -11z"/>
</g>
</svg>
