<?xml version="1.0" standalone="no"?>
<!DOCTYPE svg PUBLIC "-//W3C//DTD SVG 20010904//EN"
 "http://www.w3.org/TR/2001/REC-SVG-20010904/DTD/svg10.dtd">
<svg version="1.0" xmlns="http://www.w3.org/2000/svg"
 width="63.000000pt" height="63.000000pt" viewBox="0 0 63.000000 63.000000"
 preserveAspectRatio="xMidYMid meet">

<g transform="translate(0.000000,63.000000) scale(0.100000,-0.100000)"
fill="#000000" stroke="none">
<path d="M65 621 c-56 -24 -80 -107 -43 -148 15 -17 15 -20 -3 -42 -16 -20
-19 -40 -19 -127 0 -91 3 -107 20 -124 21 -21 50 -27 50 -10 0 6 -7 10 -15 10
-24 0 -35 35 -35 114 l0 76 65 0 c37 0 65 4 65 10 0 6 -26 10 -59 10 -67 0
-82 11 -49 34 18 13 55 16 206 16 107 0 191 -4 203 -10 17 -10 19 -22 19 -124
0 -95 -3 -115 -16 -120 -9 -3 -81 -6 -160 -6 -81 0 -144 -4 -144 -9 0 -5 5
-11 12 -13 8 -3 -2 -28 -27 -71 l-39 -67 -49 0 c-29 0 -46 -4 -42 -10 8 -14
485 -14 485 0 0 6 -20 10 -44 10 -43 0 -44 1 -84 67 l-40 68 74 5 c79 5 94 14
94 58 0 28 4 28 57 -3 34 -21 47 -24 63 -15 18 10 20 21 20 115 0 91 -2 106
-18 114 -14 8 -30 4 -65 -14 -56 -30 -57 -30 -57 -6 0 11 -10 27 -21 35 -20
14 -20 16 -5 37 41 59 -9 149 -82 149 -9 0 -31 -9 -49 -20 -41 -24 -54 -80
-30 -122 l16 -28 -74 0 -74 0 15 35 c12 30 12 40 1 68 -8 17 -21 38 -29 44
-20 17 -69 24 -93 14z m79 -32 c19 -15 26 -30 26 -55 0 -90 -125 -101 -146
-12 -5 22 0 33 24 58 36 35 60 38 96 9z m299 -11 c58 -69 -43 -159 -110 -96
-25 23 -29 57 -12 89 22 42 89 46 122 7z m167 -262 c0 -51 -3 -96 -7 -99 -7
-8 -93 39 -105 57 -4 6 -8 25 -8 41 0 17 4 35 8 41 11 17 95 63 104 58 4 -3 8
-47 8 -98z m-383 -163 c-50 -95 -97 -154 -97 -124 0 22 72 131 86 131 8 0 13
-3 11 -7z m108 -59 c34 -61 40 -84 17 -70 -9 5 -82 123 -82 132 0 2 6 4 14 4
8 0 31 -30 51 -66z m-47 -14 l33 -60 -70 0 c-39 0 -71 2 -71 5 0 11 62 115 69
115 3 0 21 -27 39 -60z"/>
<path d="M75 554 c-9 -9 -14 -21 -12 -27 6 -18 33 -31 51 -24 21 8 21 53 0 61
-21 8 -20 8 -39 -10z m32 -30 c-9 -9 -28 6 -21 18 4 6 10 6 17 -1 6 -6 8 -13
4 -17z"/>
<path d="M360 555 c-20 -25 -8 -50 25 -50 21 0 31 5 33 18 4 21 -14 47 -33 47
-7 0 -18 -7 -25 -15z m40 -26 c0 -5 -7 -9 -15 -9 -15 0 -20 12 -9 23 8 8 24
-1 24 -14z"/>
<path d="M100 170 c0 -5 5 -10 10 -10 6 0 10 5 10 10 0 6 -4 10 -10 10 -5 0
-10 -4 -10 -10z"/>
</g>
</svg>
